Coordinates
version=1
nRows=16
nColumns=22
inDegrees=yes

Units are S.I. units (second, meters, Newtons, ...)
If the header above contains a line with 'inDegrees', this indicates whether rotational values are in degrees (yes) or radians (no).

endheader
time	pelvis_tilt	pelvis_list	pelvis_rotation	pelvis_tx	pelvis_ty	pelvis_tz	hip_flexion_r	hip_adduction_r	hip_rotation_r	knee_angle_r	ankle_angle_r	subtalar_angle_r	hip_flexion_l	hip_adduction_l	hip_rotation_l	knee_angle_l	ankle_angle_l	subtalar_angle_l	lumbar_extension	lumbar_bending	lumbar_rotation
      4.34000000	     -4.17675680	     -1.39666841	      6.92441464	     -0.77766871	      1.01699502	      0.31288264	      4.56097754	      2.66017315	     -9.02383230	    -13.99755594	     11.79353099	      3.06390090	     20.59035162	     -6.38862645	    -11.68851733	    -22.61696270	     10.49745982	      8.40436501	     -4.39232615	     -4.62133360	      0.33425988
      4.35000000	     -4.10546679	     -1.41093102	      6.76772473	     -0.77964524	      1.01734285	      0.31379271	      4.60225984	      2.73201742	     -8.82653270	    -13.96172220	     11.64645829	      3.05924729	     20.36811414	     -6.57810265	    -11.52517109	    -23.56543521	     10.56327551	      8.00413416	     -4.35338556	     -4.52837165	      0.45290067
      4.36000000	     -4.02086288	     -1.42908025	      6.63104164	     -0.78151340	      1.01767121	      0.31459666	      4.62522149	      2.80444567	     -8.66307034	    -13.93392625	     11.55581382	      3.03737617	     20.11021673	     -6.75626573	    -11.31778599	    -24.49976092	     10.64724070	      7.68767179	     -4.32468545	     -4.42397896	      0.54151272
      4.37000000	     -3.94022088	     -1.45088833	      6.51594633	     -0.78328805	      1.01796624	      0.31529111	      4.64748223	      2.87545958	     -8.51921013	    -13.90949301	     11.45967188	      2.99932148	     19.83214232	     -6.91424837	    -11.05196549	    -25.40195342	     10.74464871	      7.38904749	     -4.28861995	     -4.31034491	      0.59343214
      4.38000000	     -3.86574657	     -1.47766074	      6.42515591	     -0.78497097	      1.01822296	      0.31588487	      4.67085025	      2.94653882	     -8.39958122	    -13.88690869	     11.36504959	      2.94383911	     19.53619881	     -7.05092486	    -10.72624807	    -26.25973709	     10.85485168	      7.09671860	     -4.24351254	     -4.19067045	      0.60855647
      4.39000000	     -3.80088898	     -1.50455422	      6.35581995	     -0.78655070	      1.01843716	      0.31636905	      4.69076731	      3.01220450	     -8.29368421	    -13.85492857	     11.29937395	      2.88663501	     19.21888162	     -7.15830846	    -10.34221960	    -27.05432216	     10.99026536	      6.85199273	     -4.18267355	     -4.06864970	      0.60274099
      4.40000000	     -3.74683485	     -1.54198118	      6.31389114	     -0.78808555	      1.01861074	      0.31673939	      4.73725117	      3.07774621	     -8.24567095	    -13.85676676	     11.16455458	      2.79201034	     18.89694985	     -7.25266618	     -9.94486599	    -27.79013587	     11.08689127	      6.51606703	     -4.11424916	     -3.93067535	      0.53689456
      4.41000000	     -3.70282648	     -1.57483381	      6.27934422	     -0.78949732	      1.01874168	      0.31702810	      4.77458719	      3.13477003	     -8.18821690	    -13.84108170	     11.09634070	      2.72967973	     18.54245160	     -7.31793740	     -9.52267141	    -28.42943995	     11.22640137	      6.30723034	     -4.02643641	     -3.80197486	      0.47326721
      4.42000000	     -3.66772965	     -1.61791362	      6.25922816	     -0.79086005	      1.01883981	      0.31722834	      4.83881064	      3.19329410	     -8.17420328	    -13.86481632	     10.98825565	      2.64573297	     18.16890057	     -7.37193687	     -9.10420992	    -28.96954634	     11.31336222	      6.07460240	     -3.93125041	     -3.66262761	      0.37651607
      4.43000000	     -3.64693947	     -1.65703927	      6.24153006	     -0.79212058	      1.01889668	      0.31734272	      4.90266077	      3.24293011	     -8.14927157	    -13.87399818	     10.91360242	      2.58512383	     17.76469208	     -7.39891800	     -8.69283510	    -29.38704110	     11.41194863	      5.93896758	     -3.81331649	     -3.52988210	      0.28350201
      4.44000000	     -3.63182820	     -1.70371645	      6.22692657	     -0.79331922	      1.01893138	      0.31736119	      4.98816662	      3.29171383	     -8.14337405	    -13.92159706	     10.82148801	      2.51458012	     17.32162650	     -7.41231893	     -8.30601097	    -29.66011989	     11.45657993	      5.84474666	     -3.68790107	     -3.38508680	      0.17290014
      4.45000000	     -3.62750783	     -1.74873618	      6.21381657	     -0.79442740	      1.01893289	      0.31730542	      5.07724157	      3.33444682	     -8.13373976	    -13.96410442	     10.73626445	      2.43830230	     16.84293835	     -7.40294578	     -7.93832126	    -29.78597699	     11.46327886	      5.81763906	     -3.54547553	     -3.24786944	      0.07106935
      4.46000000	     -3.62567867	     -1.79430332	      6.20176050	     -0.79546238	      1.01891406	      0.31716117	      5.17324900	      3.37177537	     -8.12173340	    -14.02333806	     10.65048436	      2.35028607	     16.31728391	     -7.37400979	     -7.60096752	    -29.74849352	     11.41445974	      5.86955762	     -3.39833853	     -3.10937610	     -0.03580649
      4.47000000	     -3.61053471	     -1.83808345	      6.18889871	     -0.79641011	      1.01889382	      0.31692754	      5.25763680	      3.40226319	     -8.12266977	    -14.09697425	     10.57719685	      2.22310759	     15.72458899	     -7.32646022	     -7.30144815	    -29.53927608	     11.32221439	      6.03663019	     -3.26327540	     -2.97026646	     -0.13324356
      4.48000000	     -3.61066502	     -1.88081696	      6.17640910	     -0.79727224	      1.01883461	      0.31660704	      5.34988439	      3.42654903	     -8.09647792	    -14.16446409	     10.50855554	      2.10773813	     15.09801567	     -7.25672032	     -7.03003452	    -29.15801328	     11.17170629	      6.28048518	     -3.10502378	     -2.83386154	     -0.23624359
      4.49000000	     -3.61572254	     -1.92686216	      6.16901964	     -0.79805786	      1.01874571	      0.31619117	      5.44232931	      3.44811792	     -8.06810702	    -14.23086011	     10.44724416	      1.99242932	     14.43604406	     -7.17241742	     -6.78840977	    -28.61607483	     10.97531777	      6.57704336	     -2.93772683	     -2.69251966	     -0.34590200
